<svg width="680" height="600" viewBox="0 0 680 600" xmlns="http://www.w3.org/2000/svg" style="background:#ffffff;font-family:monospace">

  <!-- Título -->
  <text x="340" y="32" text-anchor="middle" font-size="14" font-weight="600" fill="#111">Esquema de ligações — Arduino Uno + MFRC522</text>

  <!-- ─── ARDUINO UNO ─── -->
  <rect x="36" y="55" width="186" height="500" rx="12" fill="#E3F0FB" stroke="#1E88E5" stroke-width="1"/>
  <text x="129" y="82" text-anchor="middle" font-size="13" font-weight="600" fill="#1E88E5">Arduino Uno</text>

  <!-- Pinos Arduino -->
  <rect x="186" y="123" width="36" height="22" rx="4" fill="#E53935"/>
  <text x="181" y="138" text-anchor="end" font-size="11" fill="#333">5V</text>

  <rect x="186" y="171" width="36" height="22" rx="4" fill="#333"/>
  <text x="181" y="186" text-anchor="end" font-size="11" fill="#333">GND</text>

  <rect x="186" y="219" width="36" height="22" rx="4" fill="#F9C900"/>
  <text x="181" y="234" text-anchor="end" font-size="11" fill="#333">D9</text>

  <rect x="186" y="267" width="36" height="22" rx="4" fill="#43A047"/>
  <text x="181" y="282" text-anchor="end" font-size="11" fill="#333">D10</text>

  <rect x="186" y="315" width="36" height="22" rx="4" fill="#FB8C00"/>
  <text x="181" y="330" text-anchor="end" font-size="11" fill="#333">D11</text>

  <rect x="186" y="363" width="36" height="22" rx="4" fill="#9E9E9E"/>
  <text x="181" y="378" text-anchor="end" font-size="11" fill="#333">D12</text>

  <rect x="186" y="411" width="36" height="22" rx="4" fill="#1E88E5"/>
  <text x="181" y="426" text-anchor="end" font-size="11" fill="#333">D13</text>

  <rect x="186" y="459" width="36" height="22" rx="4" fill="#EEE"/>
  <text x="181" y="474" text-anchor="end" font-size="11" fill="#999">—</text>

  <!-- ─── MFRC522 ─── -->
  <rect x="458" y="55" width="186" height="500" rx="12" fill="#E0F5EE" stroke="#00897B" stroke-width="1"/>
  <text x="551" y="82" text-anchor="middle" font-size="13" font-weight="600" fill="#00897B">MFRC522</text>

  <!-- Pinos MFRC522 -->
  <rect x="458" y="123" width="36" height="22" rx="4" fill="#E53935"/>
  <text x="502" y="138" font-size="11" fill="#333">VCC</text>

  <rect x="458" y="171" width="36" height="22" rx="4" fill="#333"/>
  <text x="502" y="186" font-size="11" fill="#333">GND</text>

  <rect x="458" y="219" width="36" height="22" rx="4" fill="#F9C900"/>
  <text x="502" y="234" font-size="11" fill="#333">RST</text>

  <rect x="458" y="267" width="36" height="22" rx="4" fill="#43A047"/>
  <text x="502" y="282" font-size="11" fill="#333">SDA</text>

  <rect x="458" y="315" width="36" height="22" rx="4" fill="#FB8C00"/>
  <text x="502" y="330" font-size="11" fill="#333">MOSI</text>

  <rect x="458" y="363" width="36" height="22" rx="4" fill="#9E9E9E"/>
  <text x="502" y="378" font-size="11" fill="#333">MISO</text>

  <rect x="458" y="411" width="36" height="22" rx="4" fill="#1E88E5"/>
  <text x="502" y="426" font-size="11" fill="#333">SCK</text>

  <rect x="458" y="459" width="36" height="22" rx="4" fill="#EEE"/>
  <text x="502" y="474" font-size="11" fill="#aaa">IRQ</text>

  <!-- ─── FIOS ─── -->
  <line x1="222" y1="134" x2="458" y2="134" stroke="#E53935" stroke-width="2.5" stroke-linecap="round"/>
  <line x1="222" y1="182" x2="458" y2="182" stroke="#444"    stroke-width="2.5" stroke-linecap="round"/>
  <line x1="222" y1="230" x2="458" y2="230" stroke="#C8A800" stroke-width="2.5" stroke-linecap="round"/>
  <line x1="222" y1="278" x2="458" y2="278" stroke="#43A047" stroke-width="2.5" stroke-linecap="round"/>
  <line x1="222" y1="326" x2="458" y2="326" stroke="#FB8C00" stroke-width="2.5" stroke-linecap="round"/>
  <line x1="222" y1="374" x2="458" y2="374" stroke="#9E9E9E" stroke-width="2.5" stroke-linecap="round"/>
  <line x1="222" y1="422" x2="458" y2="422" stroke="#1E88E5" stroke-width="2.5" stroke-linecap="round"/>
  <line x1="222" y1="470" x2="458" y2="470" stroke="#CCC"    stroke-width="1"   stroke-dasharray="4 4"/>

  <!-- ─── LEGENDAS CENTRAIS ─── -->
  <text x="340" y="128" text-anchor="middle" font-size="11" font-weight="600" fill="#E53935">5V</text>
  <text x="340" y="176" text-anchor="middle" font-size="11" font-weight="600" fill="#555">GND</text>
  <text x="340" y="224" text-anchor="middle" font-size="11" font-weight="600" fill="#C8A800">RST</text>
  <text x="340" y="272" text-anchor="middle" font-size="11" font-weight="600" fill="#43A047">SDA / SS</text>
  <text x="340" y="320" text-anchor="middle" font-size="11" font-weight="600" fill="#FB8C00">MOSI</text>
  <text x="340" y="368" text-anchor="middle" font-size="11" font-weight="600" fill="#888">MISO</text>
  <text x="340" y="416" text-anchor="middle" font-size="11" font-weight="600" fill="#1E88E5">SCK</text>
  <text x="340" y="464" text-anchor="middle" font-size="10" fill="#BBB">opcional</text>

  <!-- ─── RODAPÉ ─── -->
  <text x="340" y="578" text-anchor="middle" font-size="10" fill="#999">Tensão do módulo: 5V  ·  Protocolo: SPI  ·  Biblioteca: MFRC522</text>

</svg>
